<svg xmlns="http://www.w3.org/2000/svg" viewBox="0 0 200 200">
  <defs>
  <linearGradient id="gViolet" x1="0" y1="0" x2="0.85" y2="1">
    <stop offset="0" stop-color="#A78FFF"/>
    <stop offset="0.5" stop-color="#7B5BF0"/>
    <stop offset="1" stop-color="#5836C7"/>
  </linearGradient>
  <linearGradient id="gGold" x1="0" y1="0" x2="0" y2="1">
    <stop offset="0" stop-color="#F8CE6A"/>
    <stop offset="1" stop-color="#D99B30"/>
  </linearGradient>
  <linearGradient id="gBoard" x1="0" y1="0" x2="1" y2="1">
    <stop offset="0" stop-color="#FFFFFF"/>
    <stop offset="1" stop-color="#E9E3F9"/>
  </linearGradient>
  <radialGradient id="gHalo" cx="0.5" cy="0.45" r="0.5">
    <stop offset="0" stop-color="#FFFFFF" stop-opacity="0.5"/>
    <stop offset="1" stop-color="#FFFFFF" stop-opacity="0"/>
  </radialGradient>
  <clipPath id="sq"><path d="M200.00 100.00 L199.93 124.54 L199.74 134.12 L199.41 141.34 L198.95 147.33 L198.36 152.54 L197.64 157.17 L196.78 161.34 L195.79 165.16 L194.65 168.66 L193.38 171.89 L191.96 174.88 L190.40 177.64 L188.69 180.21 L186.82 182.59 L184.79 184.79 L182.59 186.82 L180.21 188.69 L177.64 190.40 L174.88 191.96 L171.89 193.38 L168.66 194.65 L165.16 195.79 L161.34 196.78 L157.17 197.64 L152.54 198.36 L147.33 198.95 L141.34 199.41 L134.12 199.74 L124.54 199.93 L100.00 200.00 L75.46 199.93 L65.88 199.74 L58.66 199.41 L52.67 198.95 L47.46 198.36 L42.83 197.64 L38.66 196.78 L34.84 195.79 L31.34 194.65 L28.11 193.38 L25.12 191.96 L22.36 190.40 L19.79 188.69 L17.41 186.82 L15.21 184.79 L13.18 182.59 L11.31 180.21 L9.60 177.64 L8.04 174.88 L6.62 171.89 L5.35 168.66 L4.21 165.16 L3.22 161.34 L2.36 157.17 L1.64 152.54 L1.05 147.33 L0.59 141.34 L0.26 134.12 L0.07 124.54 L0.00 100.00 L0.07 75.46 L0.26 65.88 L0.59 58.66 L1.05 52.67 L1.64 47.46 L2.36 42.83 L3.22 38.66 L4.21 34.84 L5.35 31.34 L6.62 28.11 L8.04 25.12 L9.60 22.36 L11.31 19.79 L13.18 17.41 L15.21 15.21 L17.41 13.18 L19.79 11.31 L22.36 9.60 L25.12 8.04 L28.11 6.62 L31.34 5.35 L34.84 4.21 L38.66 3.22 L42.83 2.36 L47.46 1.64 L52.67 1.05 L58.66 0.59 L65.88 0.26 L75.46 0.07 L100.00 0.00 L124.54 0.07 L134.12 0.26 L141.34 0.59 L147.33 1.05 L152.54 1.64 L157.17 2.36 L161.34 3.22 L165.16 4.21 L168.66 5.35 L171.89 6.62 L174.88 8.04 L177.64 9.60 L180.21 11.31 L182.59 13.18 L184.79 15.21 L186.82 17.41 L188.69 19.79 L190.40 22.36 L191.96 25.12 L193.38 28.11 L194.65 31.34 L195.79 34.84 L196.78 38.66 L197.64 42.83 L198.36 47.46 L198.95 52.67 L199.41 58.66 L199.74 65.88 L199.93 75.46 Z"/></clipPath></defs>
  <g clip-path="url(#sq)">
    <path d="M200.00 100.00 L199.93 124.54 L199.74 134.12 L199.41 141.34 L198.95 147.33 L198.36 152.54 L197.64 157.17 L196.78 161.34 L195.79 165.16 L194.65 168.66 L193.38 171.89 L191.96 174.88 L190.40 177.64 L188.69 180.21 L186.82 182.59 L184.79 184.79 L182.59 186.82 L180.21 188.69 L177.64 190.40 L174.88 191.96 L171.89 193.38 L168.66 194.65 L165.16 195.79 L161.34 196.78 L157.17 197.64 L152.54 198.36 L147.33 198.95 L141.34 199.41 L134.12 199.74 L124.54 199.93 L100.00 200.00 L75.46 199.93 L65.88 199.74 L58.66 199.41 L52.67 198.95 L47.46 198.36 L42.83 197.64 L38.66 196.78 L34.84 195.79 L31.34 194.65 L28.11 193.38 L25.12 191.96 L22.36 190.40 L19.79 188.69 L17.41 186.82 L15.21 184.79 L13.18 182.59 L11.31 180.21 L9.60 177.64 L8.04 174.88 L6.62 171.89 L5.35 168.66 L4.21 165.16 L3.22 161.34 L2.36 157.17 L1.64 152.54 L1.05 147.33 L0.59 141.34 L0.26 134.12 L0.07 124.54 L0.00 100.00 L0.07 75.46 L0.26 65.88 L0.59 58.66 L1.05 52.67 L1.64 47.46 L2.36 42.83 L3.22 38.66 L4.21 34.84 L5.35 31.34 L6.62 28.11 L8.04 25.12 L9.60 22.36 L11.31 19.79 L13.18 17.41 L15.21 15.21 L17.41 13.18 L19.79 11.31 L22.36 9.60 L25.12 8.04 L28.11 6.62 L31.34 5.35 L34.84 4.21 L38.66 3.22 L42.83 2.36 L47.46 1.64 L52.67 1.05 L58.66 0.59 L65.88 0.26 L75.46 0.07 L100.00 0.00 L124.54 0.07 L134.12 0.26 L141.34 0.59 L147.33 1.05 L152.54 1.64 L157.17 2.36 L161.34 3.22 L165.16 4.21 L168.66 5.35 L171.89 6.62 L174.88 8.04 L177.64 9.60 L180.21 11.31 L182.59 13.18 L184.79 15.21 L186.82 17.41 L188.69 19.79 L190.40 22.36 L191.96 25.12 L193.38 28.11 L194.65 31.34 L195.79 34.84 L196.78 38.66 L197.64 42.83 L198.36 47.46 L198.95 52.67 L199.41 58.66 L199.74 65.88 L199.93 75.46 Z" fill="url(#gViolet)"/>
    <ellipse cx="100" cy="40" rx="94" ry="32" fill="#FFFFFF" opacity="0.13"/>
    
  <circle cx="100" cy="92" r="78" fill="url(#gHalo)" opacity="0.55"/>
  <ellipse cx="104" cy="150" rx="60" ry="14" fill="#271463" opacity="0.10"/>
  <ellipse cx="103" cy="153" rx="48" ry="10" fill="#271463" opacity="0.12"/>
  <ellipse cx="102" cy="155" rx="36" ry="7" fill="#20105A" opacity="0.14"/>
  <path d="M70 100 L130 100 L122 128 Q100 139 78 128 Z" fill="#E7E0FB"/>
  <polygon points="164,84 100,109 36,84 36,92 100,117 164,92" fill="#C4B6F2"/>
  <polygon points="100,59 164,84 100,109 36,84" fill="url(#gBoard)"/>
  <polygon points="100,59 164,84 100,109" fill="#6B53C9" opacity="0.10"/>
  <path d="M41 84 L99 61" fill="none" stroke="#FFFFFF" stroke-width="2.2" stroke-linecap="round" opacity="0.7"/>
  <path d="M100 84 Q142 86 164 89 L164 150" fill="none" stroke="url(#gGold)" stroke-width="5" stroke-linecap="round"/>
  <path d="M100 84 Q142 86 163 89" fill="none" stroke="#FFE9A8" stroke-width="1.6" stroke-linecap="round" opacity="0.55"/>
  <circle cx="100" cy="84" r="6" fill="url(#gGold)"/>
  <circle cx="97.5" cy="81.5" r="2" fill="#FFFFFF" opacity="0.55"/>
  <circle cx="164" cy="149" r="3.6" fill="#DDA53A"/>
  <path d="M159 150 L169 150 L167 166 Q164 170 161 166 Z" fill="url(#gGold)"/>
  <path d="M161 153 L161 165 M164 153 L164 168 M167 153 L167 165" stroke="#B9831C" stroke-width="0.8" stroke-linecap="round" opacity="0.45"/>
  </g>
  <path d="M200.00 100.00 L199.93 124.54 L199.74 134.12 L199.41 141.34 L198.95 147.33 L198.36 152.54 L197.64 157.17 L196.78 161.34 L195.79 165.16 L194.65 168.66 L193.38 171.89 L191.96 174.88 L190.40 177.64 L188.69 180.21 L186.82 182.59 L184.79 184.79 L182.59 186.82 L180.21 188.69 L177.64 190.40 L174.88 191.96 L171.89 193.38 L168.66 194.65 L165.16 195.79 L161.34 196.78 L157.17 197.64 L152.54 198.36 L147.33 198.95 L141.34 199.41 L134.12 199.74 L124.54 199.93 L100.00 200.00 L75.46 199.93 L65.88 199.74 L58.66 199.41 L52.67 198.95 L47.46 198.36 L42.83 197.64 L38.66 196.78 L34.84 195.79 L31.34 194.65 L28.11 193.38 L25.12 191.96 L22.36 190.40 L19.79 188.69 L17.41 186.82 L15.21 184.79 L13.18 182.59 L11.31 180.21 L9.60 177.64 L8.04 174.88 L6.62 171.89 L5.35 168.66 L4.21 165.16 L3.22 161.34 L2.36 157.17 L1.64 152.54 L1.05 147.33 L0.59 141.34 L0.26 134.12 L0.07 124.54 L0.00 100.00 L0.07 75.46 L0.26 65.88 L0.59 58.66 L1.05 52.67 L1.64 47.46 L2.36 42.83 L3.22 38.66 L4.21 34.84 L5.35 31.34 L6.62 28.11 L8.04 25.12 L9.60 22.36 L11.31 19.79 L13.18 17.41 L15.21 15.21 L17.41 13.18 L19.79 11.31 L22.36 9.60 L25.12 8.04 L28.11 6.62 L31.34 5.35 L34.84 4.21 L38.66 3.22 L42.83 2.36 L47.46 1.64 L52.67 1.05 L58.66 0.59 L65.88 0.26 L75.46 0.07 L100.00 0.00 L124.54 0.07 L134.12 0.26 L141.34 0.59 L147.33 1.05 L152.54 1.64 L157.17 2.36 L161.34 3.22 L165.16 4.21 L168.66 5.35 L171.89 6.62 L174.88 8.04 L177.64 9.60 L180.21 11.31 L182.59 13.18 L184.79 15.21 L186.82 17.41 L188.69 19.79 L190.40 22.36 L191.96 25.12 L193.38 28.11 L194.65 31.34 L195.79 34.84 L196.78 38.66 L197.64 42.83 L198.36 47.46 L198.95 52.67 L199.41 58.66 L199.74 65.88 L199.93 75.46 Z" fill="none" stroke="#FFFFFF" stroke-width="1.5" opacity="0.13"/>
</svg>